STARTFONT 2.1
FONT -thai-dbthaitext-bold-i-normal--17-120-100-100-p-50-tis620-0
SIZE 12 100 100
FONTBOUNDINGBOX 23 19 -6 -7
STARTPROPERTIES 25
FOUNDRY "thai"
FAMILY_NAME "dbthaitext"
WEIGHT_NAME "bold"
SLANT "i"
SETWIDTH_NAME "normal"
ADD_STYLE_NAME ""
PIXEL_SIZE 17
POINT_SIZE 120
RESOLUTION_X 100
RESOLUTION_Y 100
SPACING "p"
AVERAGE_WIDTH 50
CHARSET_REGISTRY "tis620"
CHARSET_ENCODING "0"
FONT "-thai-dbthaitext-bold-i-normal--17-120-100-100-p-50-tis620-0"
COPYRIGHT "Typeface (c) The Monotype Corporation plc. Data (c) The Monotype Corporation plc/Type Solutions Inc. 1990-1992. All Rights Reserved"
RAW_PIXELSIZE 1000
RAW_POINTSIZE 723
RAW_ASCENT 738
RAW_DESCENT 408
RAW_AVERAGE_WIDTH 3023
FACE_NAME "DBThaiTextBoldItalic"
DEFAULT_CHAR 0
FONT_ASCENT 12
FONT_DESCENT 7
ENDPROPERTIES
CHARS 190
STARTCHAR space
ENCODING 32
SWIDTH 240 0
DWIDTH 4 0
BBX 0 0 0 0
BITMAP
ENDCHAR
STARTCHAR exclam
ENCODING 33
SWIDTH 180 0
DWIDTH 3 0
BBX 4 7 0 0
BITMAP
30
30
20
60
40
00
c0
ENDCHAR
STARTCHAR quotedbl
ENCODING 34
SWIDTH 240 0
DWIDTH 4 0
BBX 4 3 0 4
BITMAP
90
a0
a0
ENDCHAR
STARTCHAR numbersign
ENCODING 35
SWIDTH 300 0
DWIDTH 5 0
BBX 6 7 0 0
BITMAP
14
14
7c
30
30
f8
a0
ENDCHAR
STARTCHAR dollar
ENCODING 36
SWIDTH 300 0
DWIDTH 5 0
BBX 6 8 0 -1
BITMAP
18
3c
70
70
38
b8
f0
40
ENDCHAR
STARTCHAR percent
ENCODING 37
SWIDTH 480 0
DWIDTH 8 0
BBX 8 7 0 0
BITMAP
21
5a
f4
78
3f
4b
8e
ENDCHAR
STARTCHAR ampersand
ENCODING 38
SWIDTH 420 0
DWIDTH 7 0
BBX 6 7 0 0
BITMAP
18
28
28
74
d8
d8
e8
ENDCHAR
STARTCHAR apostrophe
ENCODING 39
SWIDTH 120 0
DWIDTH 2 0
BBX 2 3 0 4
BITMAP
c0
80
80
ENDCHAR
STARTCHAR parenleft
ENCODING 40
SWIDTH 180 0
DWIDTH 3 0
BBX 4 9 0 -2
BITMAP
10
20
40
40
80
80
80
80
80
ENDCHAR
STARTCHAR parenright
ENCODING 41
SWIDTH 180 0
DWIDTH 3 0
BBX 4 9 -1 -2
BITMAP
10
10
10
10
10
20
20
40
80
ENDCHAR
STARTCHAR asterisk
ENCODING 42
SWIDTH 240 0
DWIDTH 4 0
BBX 3 3 0 4
BITMAP
40
e0
c0
ENDCHAR
STARTCHAR plus
ENCODING 43
SWIDTH 360 0
DWIDTH 6 0
BBX 5 4 0 0
BITMAP
20
f8
20
40
ENDCHAR
STARTCHAR comma
ENCODING 44
SWIDTH 180 0
DWIDTH 3 0
BBX 2 3 1 -1
BITMAP
40
c0
80
ENDCHAR
STARTCHAR minus
ENCODING 45
SWIDTH 180 0
DWIDTH 3 0
BBX 3 1 0 2
BITMAP
e0
ENDCHAR
STARTCHAR period
ENCODING 46
SWIDTH 120 0
DWIDTH 2 0
BBX 1 1 1 0
BITMAP
80
ENDCHAR
STARTCHAR slash
ENCODING 47
SWIDTH 180 0
DWIDTH 3 0
BBX 5 7 -1 0
BITMAP
08
10
10
20
40
40
80
ENDCHAR
STARTCHAR 0
ENCODING 48
SWIDTH 300 0
DWIDTH 5 0
BBX 5 7 0 0
BITMAP
18
78
48
88
90
90
e0
ENDCHAR
STARTCHAR 1
ENCODING 49
SWIDTH 300 0
DWIDTH 5 0
BBX 4 7 1 0
BITMAP
10
f0
20
60
40
c0
c0
ENDCHAR
STARTCHAR 2
ENCODING 50
SWIDTH 300 0
DWIDTH 5 0
BBX 6 7 -1 0
BITMAP
1c
24
24
08
30
40
f8
ENDCHAR
STARTCHAR 3
ENCODING 51
SWIDTH 300 0
DWIDTH 5 0
BBX 6 7 0 0
BITMAP
1c
2c
0c
38
18
d8
f0
ENDCHAR
STARTCHAR 4
ENCODING 52
SWIDTH 300 0
DWIDTH 5 0
BBX 6 7 -1 0
BITMAP
0c
1c
28
58
f8
30
10
ENDCHAR
STARTCHAR 5
ENCODING 53
SWIDTH 300 0
DWIDTH 5 0
BBX 6 7 0 0
BITMAP
3c
20
50
78
08
90
e0
ENDCHAR
STARTCHAR 6
ENCODING 54
SWIDTH 300 0
DWIDTH 5 0
BBX 6 7 0 0
BITMAP
3c
6c
60
f8
d8
d8
f0
ENDCHAR
STARTCHAR 7
ENCODING 55
SWIDTH 300 0
DWIDTH 5 0
BBX 6 7 0 0
BITMAP
7c
08
10
30
60
40
c0
ENDCHAR
STARTCHAR 8
ENCODING 56
SWIDTH 300 0
DWIDTH 5 0
BBX 6 7 0 0
BITMAP
3c
24
6c
78
c8
d8
f0
ENDCHAR
STARTCHAR 9
ENCODING 57
SWIDTH 300 0
DWIDTH 5 0
BBX 6 7 -1 0
BITMAP
3c
6c
6c
7c
78
d8
e0
ENDCHAR
STARTCHAR colon
ENCODING 58
SWIDTH 180 0
DWIDTH 3 0
BBX 3 5 0 0
BITMAP
60
00
00
00
c0
ENDCHAR
STARTCHAR semicolon
ENCODING 59
SWIDTH 180 0
DWIDTH 3 0
BBX 3 6 0 -1
BITMAP
20
00
00
40
c0
80
ENDCHAR
STARTCHAR less
ENCODING 60
SWIDTH 360 0
DWIDTH 6 0
BBX 6 4 0 0
BITMAP
1c
e0
f0
10
ENDCHAR
STARTCHAR equal
ENCODING 61
SWIDTH 360 0
DWIDTH 6 0
BBX 6 3 0 1
BITMAP
7c
00
f8
ENDCHAR
STARTCHAR greater
ENCODING 62
SWIDTH 360 0
DWIDTH 6 0
BBX 6 3 -1 1
BITMAP
70
1c
38
ENDCHAR
STARTCHAR question
ENCODING 63
SWIDTH 360 0
DWIDTH 6 0
BBX 5 7 1 0
BITMAP
78
d8
18
30
40
00
c0
ENDCHAR
STARTCHAR at
ENCODING 64
SWIDTH 540 0
DWIDTH 9 0
BBX 9 8 0 -1
BITMAP
0f00
3080
4e80
5480
a480
bf00
8000
7800
ENDCHAR
STARTCHAR A
ENCODING 65
SWIDTH 420 0
DWIDTH 7 0
BBX 6 7 -1 0
BITMAP
0c
1c
14
34
64
7c
c4
ENDCHAR
STARTCHAR B
ENCODING 66
SWIDTH 420 0
DWIDTH 7 0
BBX 8 7 -1 0
BITMAP
3f
23
67
7e
46
ce
fc
ENDCHAR
STARTCHAR C
ENCODING 67
SWIDTH 420 0
DWIDTH 7 0
BBX 8 7 0 0
BITMAP
1e
37
60
e0
e0
ee
fc
ENDCHAR
STARTCHAR D
ENCODING 68
SWIDTH 420 0
DWIDTH 7 0
BBX 8 7 -1 0
BITMAP
3e
27
63
67
46
ce
f8
ENDCHAR
STARTCHAR E
ENCODING 69
SWIDTH 360 0
DWIDTH 6 0
BBX 8 7 -1 0
BITMAP
3f
30
60
7e
60
40
fc
ENDCHAR
STARTCHAR F
ENCODING 70
SWIDTH 360 0
DWIDTH 6 0
BBX 8 7 -1 0
BITMAP
3f
30
60
7c
60
c0
c0
ENDCHAR
STARTCHAR G
ENCODING 71
SWIDTH 420 0
DWIDTH 7 0
BBX 8 7 0 0
BITMAP
1e
77
60
e6
c6
ce
fa
ENDCHAR
STARTCHAR H
ENCODING 72
SWIDTH 420 0
DWIDTH 7 0
BBX 8 7 -1 0
BITMAP
23
23
62
7e
46
c4
c4
ENDCHAR
STARTCHAR I
ENCODING 73
SWIDTH 180 0
DWIDTH 3 0
BBX 4 7 -1 0
BITMAP
30
20
20
60
40
c0
c0
ENDCHAR
STARTCHAR J
ENCODING 74
SWIDTH 300 0
DWIDTH 5 0
BBX 6 7 0 0
BITMAP
0c
0c
08
08
d8
90
e0
ENDCHAR
STARTCHAR K
ENCODING 75
SWIDTH 420 0
DWIDTH 7 0
BBX 8 7 0 0
BITMAP
23
26
78
70
58
c8
cc
ENDCHAR
STARTCHAR L
ENCODING 76
SWIDTH 360 0
DWIDTH 6 0
BBX 5 7 0 0
BITMAP
20
20
60
60
40
40
f8
ENDCHAR
STARTCHAR M
ENCODING 77
SWIDTH 480 0
DWIDTH 8 0
BBX 9 7 -1 0
BITMAP
3100
3380
7300
7700
5b00
da00
d200
ENDCHAR
STARTCHAR N
ENCODING 78
SWIDTH 420 0
DWIDTH 7 0
BBX 8 7 -1 0
BITMAP
33
33
72
7e
4e
cc
cc
ENDCHAR
STARTCHAR O
ENCODING 79
SWIDTH 420 0
DWIDTH 7 0
BBX 8 7 0 0
BITMAP
1e
37
63
e3
c6
ee
78
ENDCHAR
STARTCHAR P
ENCODING 80
SWIDTH 360 0
DWIDTH 6 0
BBX 8 7 -1 0
BITMAP
3f
23
67
7e
60
c0
c0
ENDCHAR
STARTCHAR Q
ENCODING 81
SWIDTH 420 0
DWIDTH 7 0
BBX 8 8 0 -1
BITMAP
1e
37
63
e3
c6
ee
7e
04
ENDCHAR
STARTCHAR R
ENCODING 82
SWIDTH 420 0
DWIDTH 7 0
BBX 8 7 -1 0
BITMAP
3f
23
63
7c
66
ce
cc
ENDCHAR
STARTCHAR S
ENCODING 83
SWIDTH 360 0
DWIDTH 6 0
BBX 7 7 0 0
BITMAP
3c
66
60
7c
0c
cc
f8
ENDCHAR
STARTCHAR T
ENCODING 84
SWIDTH 360 0
DWIDTH 6 0
BBX 6 7 1 0
BITMAP
fc
20
20
60
40
40
40
ENDCHAR
STARTCHAR U
ENCODING 85
SWIDTH 420 0
DWIDTH 7 0
BBX 8 7 0 0
BITMAP
23
73
66
66
ee
cc
78
ENDCHAR
STARTCHAR V
ENCODING 86
SWIDTH 360 0
DWIDTH 6 0
BBX 6 7 1 0
BITMAP
8c
88
98
b0
a0
c0
c0
ENDCHAR
STARTCHAR W
ENCODING 87
SWIDTH 540 0
DWIDTH 9 0
BBX 9 7 1 0
BITMAP
8980
d900
db00
aa00
ac00
cc00
c800
ENDCHAR
STARTCHAR X
ENCODING 88
SWIDTH 360 0
DWIDTH 6 0
BBX 8 7 -1 0
BITMAP
33
16
1c
18
38
68
cc
ENDCHAR
STARTCHAR Y
ENCODING 89
SWIDTH 360 0
DWIDTH 6 0
BBX 6 7 1 0
BITMAP
cc
d8
f0
60
40
c0
c0
ENDCHAR
STARTCHAR Z
ENCODING 90
SWIDTH 360 0
DWIDTH 6 0
BBX 8 7 -1 0
BITMAP
3f
06
0c
18
30
60
fc
ENDCHAR
STARTCHAR bracketleft
ENCODING 91
SWIDTH 180 0
DWIDTH 3 0
BBX 5 9 -1 -2
BITMAP
18
30
20
20
60
40
40
c0
c0
ENDCHAR
STARTCHAR backslash
ENCODING 92
SWIDTH 180 0
DWIDTH 3 0
BBX 1 7 1 0
BITMAP
80
80
80
80
80
80
80
ENDCHAR
STARTCHAR bracketright
ENCODING 93
SWIDTH 180 0
DWIDTH 3 0
BBX 5 9 -1 -2
BITMAP
18
18
10
10
30
20
20
20
c0
ENDCHAR
STARTCHAR asciicircum
ENCODING 94
SWIDTH 360 0
DWIDTH 6 0
BBX 4 4 0 3
BITMAP
30
30
50
90
ENDCHAR
STARTCHAR underscore
ENCODING 95
SWIDTH 300 0
DWIDTH 5 0
BBX 6 1 0 -2
BITMAP
fc
ENDCHAR
STARTCHAR grave
ENCODING 96
SWIDTH 180 0
DWIDTH 3 0
BBX 3 3 0 1
BITMAP
e0
e0
40
ENDCHAR
STARTCHAR a
ENCODING 97
SWIDTH 300 0
DWIDTH 5 0
BBX 5 5 0 0
BITMAP
38
48
78
90
f8
ENDCHAR
STARTCHAR b
ENCODING 98
SWIDTH 360 0
DWIDTH 6 0
BBX 6 7 -1 0
BITMAP
20
20
7c
6c
4c
c8
b0
ENDCHAR
STARTCHAR c
ENCODING 99
SWIDTH 300 0
DWIDTH 5 0
BBX 5 5 0 0
BITMAP
38
48
80
90
e0
ENDCHAR
STARTCHAR d
ENCODING 100
SWIDTH 360 0
DWIDTH 6 0
BBX 6 7 0 0
BITMAP
04
0c
38
48
88
90
f0
ENDCHAR
STARTCHAR e
ENCODING 101
SWIDTH 300 0
DWIDTH 5 0
BBX 5 5 0 0
BITMAP
38
48
f8
80
e0
ENDCHAR
STARTCHAR f
ENCODING 102
SWIDTH 180 0
DWIDTH 3 0
BBX 4 7 0 0
BITMAP
30
20
60
40
40
c0
80
ENDCHAR
STARTCHAR g
ENCODING 103
SWIDTH 360 0
DWIDTH 6 0
BBX 7 7 -1 -2
BITMAP
1e
64
64
4c
7c
18
f0
ENDCHAR
STARTCHAR h
ENCODING 104
SWIDTH 360 0
DWIDTH 6 0
BBX 6 7 -1 0
BITMAP
20
20
7c
6c
48
d8
c8
ENDCHAR
STARTCHAR i
ENCODING 105
SWIDTH 180 0
DWIDTH 3 0
BBX 4 7 -1 0
BITMAP
30
00
60
60
40
c0
c0
ENDCHAR
STARTCHAR j
ENCODING 106
SWIDTH 180 0
DWIDTH 3 0
BBX 5 9 -1 -2
BITMAP
18
00
10
10
30
20
60
60
c0
ENDCHAR
STARTCHAR k
ENCODING 107
SWIDTH 300 0
DWIDTH 5 0
BBX 6 7 0 0
BITMAP
20
20
68
50
70
d0
90
ENDCHAR
STARTCHAR l
ENCODING 108
SWIDTH 180 0
DWIDTH 3 0
BBX 4 7 -1 0
BITMAP
30
30
20
60
40
c0
c0
ENDCHAR
STARTCHAR m
ENCODING 109
SWIDTH 480 0
DWIDTH 8 0
BBX 8 5 0 0
BITMAP
7f
49
49
d2
92
ENDCHAR
STARTCHAR n
ENCODING 110
SWIDTH 360 0
DWIDTH 6 0
BBX 6 5 0 0
BITMAP
3c
6c
4c
48
c8
ENDCHAR
STARTCHAR o
ENCODING 111
SWIDTH 360 0
DWIDTH 6 0
BBX 5 5 0 0
BITMAP
38
48
88
90
e0
ENDCHAR
STARTCHAR p
ENCODING 112
SWIDTH 360 0
DWIDTH 6 0
BBX 7 7 -1 -2
BITMAP
2e
36
66
6c
7c
c0
c0
ENDCHAR
STARTCHAR q
ENCODING 113
SWIDTH 360 0
DWIDTH 6 0
BBX 6 7 0 -2
BITMAP
34
4c
c8
98
f8
10
30
ENDCHAR
STARTCHAR r
ENCODING 114
SWIDTH 240 0
DWIDTH 4 0
BBX 5 5 0 0
BITMAP
30
60
40
c0
c0
ENDCHAR
STARTCHAR s
ENCODING 115
SWIDTH 300 0
DWIDTH 5 0
BBX 6 5 0 0
BITMAP
7c
48
70
10
f0
ENDCHAR
STARTCHAR t
ENCODING 116
SWIDTH 180 0
DWIDTH 3 0
BBX 3 6 0 0
BITMAP
40
60
40
40
80
80
ENDCHAR
STARTCHAR u
ENCODING 117
SWIDTH 360 0
DWIDTH 6 0
BBX 6 5 0 0
BITMAP
4c
48
c8
d8
e8
ENDCHAR
STARTCHAR v
ENCODING 118
SWIDTH 300 0
DWIDTH 5 0
BBX 5 5 1 0
BITMAP
98
90
b0
e0
c0
ENDCHAR
STARTCHAR w
ENCODING 119
SWIDTH 420 0
DWIDTH 7 0
BBX 8 5 0 0
BITMAP
db
fa
ee
dc
d8
ENDCHAR
STARTCHAR x
ENCODING 120
SWIDTH 300 0
DWIDTH 5 0
BBX 7 5 -1 0
BITMAP
36
3c
38
78
d8
ENDCHAR
STARTCHAR y
ENCODING 121
SWIDTH 300 0
DWIDTH 5 0
BBX 7 7 -1 -2
BITMAP
26
24
2c
38
30
20
c0
ENDCHAR
STARTCHAR z
ENCODING 122
SWIDTH 300 0
DWIDTH 5 0
BBX 6 5 -1 0
BITMAP
3c
18
30
60
f8
ENDCHAR
STARTCHAR braceleft
ENCODING 123
SWIDTH 240 0
DWIDTH 4 0
BBX 4 9 0 -2
BITMAP
10
20
20
40
80
80
80
80
80
ENDCHAR
STARTCHAR bar
ENCODING 124
SWIDTH 180 0
DWIDTH 3 0
BBX 4 9 -1 -2
BITMAP
10
10
20
20
20
40
40
40
80
ENDCHAR
STARTCHAR braceright
ENCODING 125
SWIDTH 240 0
DWIDTH 4 0
BBX 4 9 -1 -2
BITMAP
10
10
10
10
10
20
20
40
80
ENDCHAR
STARTCHAR asciitilde
ENCODING 126
SWIDTH 360 0
DWIDTH 6 0
BBX 5 2 0 1
BITMAP
68
10
ENDCHAR
STARTCHAR exclamdown
ENCODING 161
SWIDTH 360 0
DWIDTH 6 0
BBX 6 6 0 0
BITMAP
3c
64
64
48
c8
88
ENDCHAR
STARTCHAR cent
ENCODING 162
SWIDTH 360 0
DWIDTH 6 0
BBX 6 6 0 0
BITMAP
74
b4
f8
68
58
f0
ENDCHAR
STARTCHAR sterling
ENCODING 163
SWIDTH 420 0
DWIDTH 7 0
BBX 6 6 1 0
BITMAP
74
d4
f8
68
28
70
ENDCHAR
STARTCHAR currency
ENCODING 164
SWIDTH 360 0
DWIDTH 6 0
BBX 5 6 1 0
BITMAP
30
c8
f8
e8
90
90
ENDCHAR
STARTCHAR yen
ENCODING 165
SWIDTH 360 0
DWIDTH 6 0
BBX 5 6 1 0
BITMAP
38
c8
f8
e8
90
90
ENDCHAR
STARTCHAR brokenbar
ENCODING 166
SWIDTH 480 0
DWIDTH 8 0
BBX 8 6 0 0
BITMAP
39
db
f2
76
7e
64
ENDCHAR
STARTCHAR section
ENCODING 167
SWIDTH 300 0
DWIDTH 5 0
BBX 4 6 1 0
BITMAP
10
30
90
a0
a0
40
ENDCHAR
STARTCHAR diaeresis
ENCODING 168
SWIDTH 360 0
DWIDTH 6 0
BBX 5 6 1 0
BITMAP
78
88
78
f0
70
70
ENDCHAR
STARTCHAR copyright
ENCODING 169
SWIDTH 420 0
DWIDTH 7 0
BBX 6 6 0 0
BITMAP
3c
44
4c
c8
7c
58
ENDCHAR
STARTCHAR ordfeminine
ENCODING 170
SWIDTH 360 0
DWIDTH 6 0
BBX 6 6 1 0
BITMAP
6c
b0
e8
28
50
f0
ENDCHAR
STARTCHAR guillemotleft
ENCODING 171
SWIDTH 360 0
DWIDTH 6 0
BBX 8 6 0 0
BITMAP
7b
ec
fe
7c
2c
78
ENDCHAR
STARTCHAR notsign
ENCODING 172
SWIDTH 480 0
DWIDTH 8 0
BBX 8 6 0 0
BITMAP
39
69
4a
4a
de
f4
ENDCHAR
STARTCHAR hyphen
ENCODING 173
SWIDTH 480 0
DWIDTH 8 0
BBX 8 9 1 -3
BITMAP
39
69
4a
4a
d6
fc
34
38
30
ENDCHAR
STARTCHAR registered
ENCODING 174
SWIDTH 420 0
DWIDTH 7 0
BBX 8 9 -1 -3
BITMAP
0e
3b
3b
36
76
e6
7c
fc
cc
ENDCHAR
STARTCHAR macron
ENCODING 175
SWIDTH 420 0
DWIDTH 7 0
BBX 8 9 -1 -3
BITMAP
0e
3b
1b
36
76
e6
34
fc
ec
ENDCHAR
STARTCHAR degree
ENCODING 176
SWIDTH 300 0
DWIDTH 5 0
BBX 9 9 -2 -3
BITMAP
0f80
1c00
1e00
2c00
1c00
0c00
2800
7800
f800
ENDCHAR
STARTCHAR plusminus
ENCODING 177
SWIDTH 480 0
DWIDTH 8 0
BBX 8 6 0 0
BITMAP
7b
ff
fb
7e
36
26
ENDCHAR
STARTCHAR twosuperior
ENCODING 178
SWIDTH 480 0
DWIDTH 8 0
BBX 8 6 0 0
BITMAP
39
49
ba
aa
da
94
ENDCHAR
STARTCHAR threesuperior
ENCODING 179
SWIDTH 480 0
DWIDTH 8 0
BBX 8 6 0 0
BITMAP
39
69
4a
4e
db
d6
ENDCHAR
STARTCHAR acute
ENCODING 180
SWIDTH 360 0
DWIDTH 6 0
BBX 5 6 0 0
BITMAP
38
c8
a8
a8
d0
90
ENDCHAR
STARTCHAR mu
ENCODING 181
SWIDTH 360 0
DWIDTH 6 0
BBX 5 6 1 0
BITMAP
38
c8
a8
a8
d0
90
ENDCHAR
STARTCHAR paragraph
ENCODING 182
SWIDTH 360 0
DWIDTH 6 0
BBX 6 6 0 0
BITMAP
3c
6c
6c
48
f8
c8
ENDCHAR
STARTCHAR periodcentered
ENCODING 183
SWIDTH 420 0
DWIDTH 7 0
BBX 6 6 1 0
BITMAP
4c
b4
5c
68
48
88
ENDCHAR
STARTCHAR cedilla
ENCODING 184
SWIDTH 300 0
DWIDTH 5 0
BBX 7 6 0 0
BITMAP
1e
70
28
48
50
f0
ENDCHAR
STARTCHAR onesuperior
ENCODING 185
SWIDTH 420 0
DWIDTH 7 0
BBX 6 6 0 0
BITMAP
64
a4
48
58
ec
98
ENDCHAR
STARTCHAR masculine
ENCODING 186
SWIDTH 360 0
DWIDTH 6 0
BBX 7 6 0 0
BITMAP
22
72
24
24
4c
f8
ENDCHAR
STARTCHAR guillemotright
ENCODING 187
SWIDTH 360 0
DWIDTH 6 0
BBX 8 8 -1 0
BITMAP
01
03
22
72
26
24
4c
f8
ENDCHAR
STARTCHAR onequarter
ENCODING 188
SWIDTH 360 0
DWIDTH 6 0
BBX 6 6 0 0
BITMAP
24
74
44
78
d8
88
ENDCHAR
STARTCHAR onehalf
ENCODING 189
SWIDTH 360 0
DWIDTH 6 0
BBX 8 8 -1 0
BITMAP
01
03
32
76
66
54
ec
cc
ENDCHAR
STARTCHAR threequarters
ENCODING 190
SWIDTH 420 0
DWIDTH 7 0
BBX 7 6 0 0
BITMAP
4a
aa
5c
6c
cc
88
ENDCHAR
STARTCHAR questiondown
ENCODING 191
SWIDTH 420 0
DWIDTH 7 0
BBX 8 8 0 0
BITMAP
01
03
6a
ea
5e
6c
cc
cc
ENDCHAR
STARTCHAR Agrave
ENCODING 192
SWIDTH 420 0
DWIDTH 7 0
BBX 7 6 -1 0
BITMAP
0c
32
32
24
e4
c4
ENDCHAR
STARTCHAR Aacute
ENCODING 193
SWIDTH 360 0
DWIDTH 6 0
BBX 7 6 0 0
BITMAP
32
52
24
24
fc
c8
ENDCHAR
STARTCHAR Acircumflex
ENCODING 194
SWIDTH 360 0
DWIDTH 6 0
BBX 6 6 0 0
BITMAP
34
74
48
68
48
f0
ENDCHAR
STARTCHAR Atilde
ENCODING 195
SWIDTH 300 0
DWIDTH 5 0
BBX 6 6 1 0
BITMAP
7c
e0
10
10
60
60
ENDCHAR
STARTCHAR Adiaeresis
ENCODING 196
SWIDTH 360 0
DWIDTH 6 0
BBX 6 9 0 -3
BITMAP
3c
6c
6c
48
e8
d8
10
10
30
ENDCHAR
STARTCHAR Aring
ENCODING 197
SWIDTH 360 0
DWIDTH 6 0
BBX 5 6 0 0
BITMAP
38
48
68
50
d0
d0
ENDCHAR
STARTCHAR AE
ENCODING 198
SWIDTH 420 0
DWIDTH 7 0
BBX 7 9 0 -3
BITMAP
0c
32
32
24
e4
c4
08
08
08
ENDCHAR
STARTCHAR Ccedilla
ENCODING 199
SWIDTH 300 0
DWIDTH 5 0
BBX 4 6 1 0
BITMAP
70
90
10
10
20
60
ENDCHAR
STARTCHAR Egrave
ENCODING 200
SWIDTH 360 0
DWIDTH 6 0
BBX 6 6 1 0
BITMAP
34
c8
f8
e8
90
90
ENDCHAR
STARTCHAR Eacute
ENCODING 201
SWIDTH 360 0
DWIDTH 6 0
BBX 8 6 0 0
BITMAP
22
72
3d
3e
4c
f8
ENDCHAR
STARTCHAR Ecircumflex
ENCODING 202
SWIDTH 360 0
DWIDTH 6 0
BBX 6 6 0 0
BITMAP
3c
48
78
58
d0
d0
ENDCHAR
STARTCHAR Ediaeresis
ENCODING 203
SWIDTH 360 0
DWIDTH 6 0
BBX 6 6 0 0
BITMAP
4c
ac
58
68
c8
88
ENDCHAR
STARTCHAR Igrave
ENCODING 204
SWIDTH 420 0
DWIDTH 7 0
BBX 8 7 0 0
BITMAP
02
47
b4
54
6c
c8
88
ENDCHAR
STARTCHAR Iacute
ENCODING 205
SWIDTH 360 0
DWIDTH 6 0
BBX 6 6 0 0
BITMAP
3c
4c
6c
68
c8
f8
ENDCHAR
STARTCHAR Icircumflex
ENCODING 206
SWIDTH 360 0
DWIDTH 6 0
BBX 7 6 0 0
BITMAP
3a
7c
24
68
c8
f8
ENDCHAR
STARTCHAR Idiaeresis
ENCODING 207
SWIDTH 360 0
DWIDTH 6 0
BBX 5 6 1 0
BITMAP
68
f8
b0
50
30
10
ENDCHAR
STARTCHAR ETH
ENCODING 208
SWIDTH 240 0
DWIDTH 4 0
BBX 5 5 0 0
BITMAP
28
70
00
f0
e0
ENDCHAR
STARTCHAR Ntilde
ENCODING 209
SWIDTH 0 0
DWIDTH 0 0
BBX 5 2 -4 7
BITMAP
c8
f0
ENDCHAR
STARTCHAR Ograve
ENCODING 210
SWIDTH 300 0
DWIDTH 5 0
BBX 4 6 1 0
BITMAP
70
90
10
20
20
20
ENDCHAR
STARTCHAR Oacute
ENCODING 211
SWIDTH 300 0
DWIDTH 5 0
BBX 6 9 -2 0
BITMAP
40
c0
00
1c
24
04
08
08
08
ENDCHAR
STARTCHAR Ocircumflex
ENCODING 212
SWIDTH 0 0
DWIDTH 0 0
BBX 4 2 -5 7
BITMAP
70
f0
ENDCHAR
STARTCHAR Otilde
ENCODING 213
SWIDTH 60 0
DWIDTH 1 0
BBX 5 3 -5 7
BITMAP
08
78
f0
ENDCHAR
STARTCHAR Odiaeresis
ENCODING 214
SWIDTH 0 0
DWIDTH 0 0
BBX 5 3 -6 7
BITMAP
08
78
f0
ENDCHAR
STARTCHAR multiply
ENCODING 215
SWIDTH 60 0
DWIDTH 1 0
BBX 5 3 -5 7
BITMAP
18
78
f0
ENDCHAR
STARTCHAR Ooblique
ENCODING 216
SWIDTH 0 0
DWIDTH 0 0
BBX 3 3 -3 -4
BITMAP
e0
c0
40
ENDCHAR
STARTCHAR Ugrave
ENCODING 217
SWIDTH 0 0
DWIDTH 0 0
BBX 4 3 -4 -4
BITMAP
f0
d0
60
ENDCHAR
STARTCHAR Uacute
ENCODING 218
SWIDTH 0 0
DWIDTH 0 0
BBX 1 1 -2 -2
BITMAP
80
ENDCHAR
STARTCHAR Ucircumflex
ENCODING 219
SWIDTH 0 0
DWIDTH 0 0
BBX 1 1 -2 -4
BITMAP
80
ENDCHAR
STARTCHAR Udiaeresis
ENCODING 220
SWIDTH 0 0
DWIDTH 0 0
BBX 1 1 0 0
BITMAP
00
ENDCHAR
STARTCHAR Yacute
ENCODING 221
SWIDTH 0 0
DWIDTH 0 0
BBX 1 1 0 0
BITMAP
00
ENDCHAR
STARTCHAR THORN
ENCODING 222
SWIDTH 0 0
DWIDTH 0 0
BBX 1 1 0 0
BITMAP
00
ENDCHAR
STARTCHAR ssharp
ENCODING 223
SWIDTH 420 0
DWIDTH 7 0
BBX 8 9 -1 -1
BITMAP
04
3f
27
6f
7e
5e
de
fc
20
ENDCHAR
STARTCHAR agrave
ENCODING 224
SWIDTH 180 0
DWIDTH 3 0
BBX 3 6 0 0
BITMAP
20
20
40
40
e0
c0
ENDCHAR
STARTCHAR aacute
ENCODING 225
SWIDTH 360 0
DWIDTH 6 0
BBX 5 6 0 0
BITMAP
48
48
50
50
d8
d0
ENDCHAR
STARTCHAR acircumflex
ENCODING 226
SWIDTH 240 0
DWIDTH 4 0
BBX 5 10 0 0
BITMAP
78
20
20
20
20
40
40
40
c0
c0
ENDCHAR
STARTCHAR atilde
ENCODING 227
SWIDTH 240 0
DWIDTH 4 0
BBX 4 10 0 0
BITMAP
70
70
20
20
60
40
40
40
e0
c0
ENDCHAR
STARTCHAR adiaeresis
ENCODING 228
SWIDTH 240 0
DWIDTH 4 0
BBX 4 10 1 0
BITMAP
70
70
60
20
20
40
40
40
c0
c0
ENDCHAR
STARTCHAR aring
ENCODING 229
SWIDTH 300 0
DWIDTH 5 0
BBX 4 9 1 -3
BITMAP
70
90
10
20
20
20
40
40
40
ENDCHAR
STARTCHAR ae
ENCODING 230
SWIDTH 420 0
DWIDTH 7 0
BBX 4 8 2 -2
BITMAP
70
90
f0
50
20
20
40
c0
ENDCHAR
STARTCHAR ccedilla
ENCODING 231
SWIDTH 0 0
DWIDTH 0 0
BBX 5 3 -5 7
BITMAP
78
80
f0
ENDCHAR
STARTCHAR egrave
ENCODING 232
SWIDTH 0 0
DWIDTH 0 0
BBX 1 2 -2 10
BITMAP
80
80
ENDCHAR
STARTCHAR eacute
ENCODING 233
SWIDTH 0 0
DWIDTH 0 0
BBX 4 2 -3 10
BITMAP
d0
60
ENDCHAR
STARTCHAR ecircumflex
ENCODING 234
SWIDTH 0 0
DWIDTH 0 0
BBX 4 2 -4 10
BITMAP
f0
b0
ENDCHAR
STARTCHAR ediaeresis
ENCODING 235
SWIDTH 0 0
DWIDTH 0 0
BBX 3 2 -3 10
BITMAP
e0
40
ENDCHAR
STARTCHAR igrave
ENCODING 236
SWIDTH 0 0
DWIDTH 0 0
BBX 4 3 -4 9
BITMAP
60
c0
40
ENDCHAR
STARTCHAR iacute
ENCODING 237
SWIDTH 0 0
DWIDTH 0 0
BBX 2 2 -3 7
BITMAP
40
c0
ENDCHAR
STARTCHAR icircumflex
ENCODING 238
SWIDTH 0 0
DWIDTH 0 0
BBX 2 3 -3 8
BITMAP
40
c0
80
ENDCHAR
STARTCHAR idiaeresis
ENCODING 239
SWIDTH 360 0
DWIDTH 6 0
BBX 6 6 0 0
BITMAP
38
44
bc
f4
a8
70
ENDCHAR
STARTCHAR eth
ENCODING 240
SWIDTH 360 0
DWIDTH 6 0
BBX 5 4 0 0
BITMAP
78
88
98
f0
ENDCHAR
STARTCHAR ntilde
ENCODING 241
SWIDTH 360 0
DWIDTH 6 0
BBX 5 5 1 -1
BITMAP
78
a8
e8
d0
10
ENDCHAR
STARTCHAR ograve
ENCODING 242
SWIDTH 420 0
DWIDTH 7 0
BBX 6 6 0 0
BITMAP
40
40
7c
a4
e4
f8
ENDCHAR
STARTCHAR oacute
ENCODING 243
SWIDTH 420 0
DWIDTH 7 0
BBX 6 4 0 0
BITMAP
7c
94
e4
e8
ENDCHAR
STARTCHAR ocircumflex
ENCODING 244
SWIDTH 420 0
DWIDTH 7 0
BBX 8 6 0 0
BITMAP
01
02
7c
b0
b0
f8
ENDCHAR
STARTCHAR otilde
ENCODING 245
SWIDTH 420 0
DWIDTH 7 0
BBX 8 6 0 0
BITMAP
09
1a
7c
b0
b0
f8
ENDCHAR
STARTCHAR odiaeresis
ENCODING 246
SWIDTH 300 0
DWIDTH 5 0
BBX 5 6 0 0
BITMAP
40
40
78
48
b0
f0
ENDCHAR
STARTCHAR division
ENCODING 247
SWIDTH 420 0
DWIDTH 7 0
BBX 8 6 0 0
BITMAP
01
02
7a
aa
ec
d8
ENDCHAR
STARTCHAR oslash
ENCODING 248
SWIDTH 420 0
DWIDTH 7 0
BBX 8 6 0 0
BITMAP
03
03
7e
cc
fc
fc
ENDCHAR
STARTCHAR ugrave
ENCODING 249
SWIDTH 360 0
DWIDTH 6 0
BBX 7 6 0 0
BITMAP
02
02
7c
d8
e8
e8
ENDCHAR
STARTCHAR uacute
ENCODING 250
SWIDTH 1020 0
DWIDTH 17 0
BBX 17 1 0 2
BITMAP
7fff80
ENDCHAR
STARTCHAR ucircumflex
ENCODING 251
SWIDTH 480 0
DWIDTH 8 0
BBX 8 1 0 2
BITMAP
ff
ENDCHAR
STARTCHAR udiaeresis
ENCODING 252
SWIDTH 0 0
DWIDTH 0 0
BBX 2 4 -3 -7
BITMAP
40
c0
40
40
ENDCHAR
STARTCHAR yacute
ENCODING 253
SWIDTH 0 0
DWIDTH 0 0
BBX 4 4 -4 -7
BITMAP
50
d0
60
60
ENDCHAR
STARTCHAR thorn
ENCODING 254
SWIDTH 420 0
DWIDTH 7 0
BBX 8 7 0 0
BITMAP
0e
33
7f
ef
f9
fe
7c
ENDCHAR
STARTCHAR ydiaeresis
ENCODING 255
SWIDTH 0 0
DWIDTH 0 0
BBX 1 1 0 0
BITMAP
00
ENDCHAR
ENDFONT
